# xmcd CD database file generated by Grip 3.3.1
# 
# Track frame offsets:
#       150
#       15361
#       37424
#       62279
#       83690
#       104172
#       120569
#       136173
#       147441
#       160485
#       171074
#       187058
#       201262
#       223328
#       241609
#       255786
#       267280
#       279854
#       292880
#       303008
# 
# Disc length: 4237 seconds
# 
# Revision: 1
# Processed by: cddbd v1.5.2PL0 Copyright (c) Steve Scherf et al.
# Submitted via: Grip 3.3.1
# 
DISCID=19108b14
DTITLE=Christina Branco - Christina Branco - Poemas
DYEAR=2014
DGENRE=Chanson
TTITLE0=1. Fado de partilha
TTITLE1=2. A case of you
TTITLE2=3. O meu amor
TTITLE3=4. Quando julgas que me amas
TTITLE4=5. Canção de embalar
TTITLE5=6. Reflexão total
TTITLE6=7. Ninfas
TTITLE7=8. Musa
TTITLE8=9. Não oiças a minha voz
TTITLE9=10. Toado em realejo
TTITLE10=11. No comboio descendente
TTITLE11=12. L'invitation au voyage
TTITLE12=13. Talvez
TTITLE13=14. Tango
TTITLE14=15. As certezas do meu mais brilhante amor
TTITLE15=16. As mãos e os frutos
TTITLE16=17. Cantigas às serranas
TTITLE17=18. Aspiração
TTITLE18=19. Assim que te despes
TTITLE19=20. Soneto de separação
EXTD=
EXTT0=
EXTT1=
EXTT2=
EXTT3=
EXTT4=
EXTT5=
EXTT6=
EXTT7=
EXTT8=
EXTT9=
EXTT10=
EXTT11=
EXTT12=
EXTT13=
EXTT14=
EXTT15=
EXTT16=
EXTT17=
EXTT18=
EXTT19=
PLAYORDER=
